<svg data-name="Apple / Original" xmlns="http://www.w3.org/2000/svg" width="23.541" height="23.541" viewBox="0 0 23.541 23.541">
    <path d="M21.376 18.346a12.8 12.8 0 0 1-1.266 2.276 11.562 11.562 0 0 1-1.63 1.97 3.163 3.163 0 0 1-2.1.923 5.252 5.252 0 0 1-1.936-.462 5.554 5.554 0 0 0-2.084-.461 5.742 5.742 0 0 0-2.143.461 5.765 5.765 0 0 1-1.852.487 2.978 2.978 0 0 1-2.143-.947 12.14 12.14 0 0 1-1.705-2.04 14.11 14.11 0 0 1-1.8-3.582 13.116 13.116 0 0 1-.755-4.271 7.8 7.8 0 0 1 1.024-4.078A6.005 6.005 0 0 1 5.13 6.453a5.768 5.768 0 0 1 2.9-.818 6.825 6.825 0 0 1 2.242.522 7.207 7.207 0 0 0 1.778.523 10.641 10.641 0 0 0 1.972-.616 6.518 6.518 0 0 1 2.68-.476 5.691 5.691 0 0 1 4.46 2.347 4.959 4.959 0 0 0-2.63 4.5 4.97 4.97 0 0 0 1.63 3.75 5.363 5.363 0 0 0 1.63 1.069q-.2.569-.416 1.091zM16.833.471a5.022 5.022 0 0 1-1.287 3.294 4.386 4.386 0 0 1-3.643 1.8 3.665 3.665 0 0 1-.027-.446 5.16 5.16 0 0 1 1.366-3.329A5.258 5.258 0 0 1 14.905.539 4.961 4.961 0 0 1 16.808 0a4.276 4.276 0 0 1 .025.471z"/>
</svg>
