<svg data-name="Facebook / Original" xmlns="http://www.w3.org/2000/svg" width="24.353" height="25.165" viewBox="0 0 24.353 25.165">
    <path d="M24.353 12.582A12.384 12.384 0 0 0 12.176 0 12.384 12.384 0 0 0 0 12.582a12.467 12.467 0 0 0 10.274 12.43v-8.793H7.182v-3.637h3.092V9.81c0-3.153 1.818-4.9 4.6-4.9a18.147 18.147 0 0 1 2.726.246v3.1h-1.537a1.791 1.791 0 0 0-1.984 1.966v2.359h3.377l-.54 3.637h-2.837v8.792a12.467 12.467 0 0 0 10.274-12.428z" style="fill:#1877f2"/>
    <path data-name="Vector" d="m9.734 11.3.54-3.637H6.9V5.308a1.791 1.791 0 0 1 1.981-1.966h1.535V.246A18.138 18.138 0 0 0 7.691 0c-2.781 0-4.6 1.742-4.6 4.9v2.767H0V11.3h3.092v8.8a11.917 11.917 0 0 0 3.805 0v-8.8z" transform="translate(7.182 4.915)" style="fill:#fff"/>
</svg>
