<svg data-name="Google / Original" xmlns="http://www.w3.org/2000/svg" width="21.918" height="21.918" viewBox="0 0 21.918 21.918">
    <path d="M10.526 2.227A12.888 12.888 0 0 0 10.337 0H0v4.22h5.919a5.073 5.073 0 0 1-2.19 3.33v2.738H7.26a10.7 10.7 0 0 0 3.266-8.061z" transform="translate(11.178 8.984)" style="fill:#4285f4"/>
    <path data-name="Vector" d="M9.793 8.859a10.491 10.491 0 0 0 7.264-2.646l-3.531-2.738A6.557 6.557 0 0 1 9.8 4.522 6.56 6.56 0 0 1 3.644 0H0v2.823a10.96 10.96 0 0 0 9.793 6.036z" transform="translate(1.385 13.06)" style="fill:#34a853"/>
    <path data-name="Vector" d="M4.806 7.019a6.564 6.564 0 0 1 0-4.2V0h-3.64a10.968 10.968 0 0 0 0 9.841l3.64-2.823z" transform="translate(.219 6.041)" style="fill:#fbbc04"/>
    <path data-name="Vector" d="M9.793 4.338A5.955 5.955 0 0 1 14 5.98l3.129-3.129A10.533 10.533 0 0 0 9.793 0 10.957 10.957 0 0 0 0 6.041l3.64 2.823a6.555 6.555 0 0 1 6.153-4.526z" transform="translate(1.385)" style="fill:#ea4335"/>
</svg>
