<svg xmlns="http://www.w3.org/2000/svg" width="28.641" height="29" viewBox="0 0 28.641 29">
    <path d="M12.612.334a1.138 1.138 0 0 1 1.61 0l9.333 9.206 2.917 2.876a1.24 1.24 0 0 1 .041 1.71 1.139 1.139 0 0 1-1.651.042l-.945-.934v9.121a2.461 2.461 0 0 1-.683 1.709 2.293 2.293 0 0 1-1.65.708H5.25a2.293 2.293 0 0 1-1.65-.708 2.461 2.461 0 0 1-.683-1.709v-9.121l-.945.933a1.139 1.139 0 0 1-1.65-.041 1.239 1.239 0 0 1 .04-1.709L3.278 9.54 12.612.333zM5.25 10.933v11.421h4.667v-6.041a3.692 3.692 0 0 1 1.025-2.563 3.415 3.415 0 0 1 4.95 0 3.692 3.692 0 0 1 1.025 2.563v6.042h4.667V10.933l-8.167-8.057-8.167 8.056zm9.333 11.421v-6.041a1.231 1.231 0 0 0-.342-.854 1.138 1.138 0 0 0-1.65 0 1.231 1.231 0 0 0-.342.854v6.042z" transform="translate(1.806 2.636)" style="fill:#fff"/>
</svg>
