<svg xmlns="http://www.w3.org/2000/svg" width="15.999" height="16.001" viewBox="0 0 15.999 16.001">
    <path d="M2.525 3.806V1.371C2.526.422 2.989 0 4.033 0h10.48C15.5 0 16 .442 16 1.332v13.337c0 .9-.485 1.33-1.479 1.331H1.872C.658 16 0 15.4 0 14.3V5.137c0-.9.478-1.325 1.478-1.33.328-.007.655-.001 1.047-.001zm.748 11.443h11.153c.634 0 .722-.082.722-.661V1.427c0-.6-.065-.657-.716-.657H4.147c-.733 0-.788.049-.788.7v12.233c-.005.507-.059 1.011-.086 1.546zM2.5 4.571h-.948c-.63 0-.719.081-.72.663v9.012a1.743 1.743 0 0 0 .032.389.842.842 0 0 0 1.222.508.8.8 0 0 0 .44-.815V4.889C2.524 4.8 2.513 4.7 2.5 4.571z" style="fill:#07a385"/>
    <path data-name="Vector" d="M1.692 0a4.783 4.783 0 0 1 .954.166A1.162 1.162 0 0 1 3.378 1.4c0 .619.034 1.266-.719 1.559a2.668 2.668 0 0 1-1.953 0C-.108 2.63.009 1.927 0 1.285A1.093 1.093 0 0 1 .728.163 4.782 4.782 0 0 1 1.692 0zm.835 1.562v-.249C2.519.922 2.4.818 1.959.807.834.779.808.8.847 1.818a.777.777 0 0 0 .009.142c.12.541.6.332.954.363.321.029.656.028.715-.37a2.94 2.94 0 0 0 .002-.391z" transform="translate(5.045 6.439)" style="fill:#07a385"/>
    <path data-name="Vector" d="M1.65 3.108a5.187 5.187 0 0 1-.95-.179 1.022 1.022 0 0 1-.7-.957c0-.284 0-.572.008-.854A1.161 1.161 0 0 1 1.058.037a2.131 2.131 0 0 1 .234-.026c1.688-.088 2.15.326 2.076 1.861a1.215 1.215 0 0 1-1.355 1.189h-.354l-.009.047zm.02-.8a1.835 1.835 0 0 0 .579-.051c.489-.221.245-.652.26-.99a.556.556 0 0 0-.3-.454A3.421 3.421 0 0 0 1.155.8c-.292.035-.337.284-.3.5.047.329-.2.743.275.954a1.764 1.764 0 0 0 .54.056z" transform="translate(5.047 2.653)" style="fill:#07a385"/>
    <path data-name="Vector" d="M1.254 1.42c.481-.448.892-.828 1.3-1.211.2-.19.437-.306.682-.1.266.223.14.442-.083.64-.495.441-.981.89-1.475 1.331-.31.277-.492.277-.8.009C.662 1.9.455 1.7.238 1.512s-.356-.406-.094-.64.5-.086.7.111c.127.123.24.254.41.437z" transform="translate(5.034 10.666)" style="fill:#07a385"/>
    <path data-name="Vector" d="M2.106 0h1.615c.3 0 .534.093.526.4-.007.28-.224.373-.512.373Q2.12.769.5.772C.217.772 0 .681 0 .393 0 .083.229 0 .529 0H2.1z" transform="translate(9.238 6.854)" style="fill:#07a385"/>
    <path data-name="Vector" d="M2.12.754H.505C.218.756 0 .664 0 .378S.208 0 .5 0q1.615.006 3.23 0c.281 0 .474.1.485.357.013.278-.184.4-.482.4A144.32 144.32 0 0 0 2.12.754z" transform="translate(9.252 3.054)" style="fill:#07a385"/>
    <path data-name="Vector" d="M2.07.751H.495C.2.755 0 .646 0 .367 0 .108.2 0 .475 0h3.268c.284 0 .462.127.455.384s-.192.369-.474.367c-.552-.003-1.103 0-1.654 0z" transform="translate(9.261 10.675)" style="fill:#07a385"/>
    <path data-name="Vector" d="M1.259 0c.275 0 .55-.007.825 0 .257.009.421.127.426.374s-.153.387-.41.393q-.843.019-1.688 0A.37.37 0 0 1 0 .377C.007.142.172.011.434 0s.55 0 .825 0z" transform="translate(9.26 4.568)" style="fill:#07a385"/>
    <path data-name="Vector" d="M1.27.014a4.033 4.033 0 0 1 .821.015.624.624 0 0 1 .4.335c.077.228-.108.4-.365.4C1.554.788.978.786.4.773a.364.364 0 0 1-.4-.4C.017.142.179.016.446.015L1.27.014z" transform="translate(9.26 12.183)" style="fill:#07a385"/>
    <path data-name="Vector" d="M1.232.756H.409C.135.756-.04.6.008.379a.554.554 0 0 1 .38-.353C.96-.015 1.537 0 2.111.012a.349.349 0 0 1 .389.4c-.012.221-.157.339-.4.343-.293.004-.581.001-.868.001z" transform="translate(9.278 8.383)" style="fill:#07a385"/>
</svg>
