<svg xmlns="http://www.w3.org/2000/svg" width="16" height="16" viewBox="0 0 16 16">
    <g style="fill:none">
        <path d="M.966 15.047c-.108.006-.179.012-.25.013-.5.008-.729.164-.716.488S.236 16 .722 16h14.812a.467.467 0 1 0-.006-.933c-.153-.01-.307 0-.494 0V5.354c0-.526-.142-.664-.668-.664h-1.407c-.63 0-.74.111-.74.749v9.606h-.935V8.153c0-.505-.148-.649-.651-.651s-.979 0-1.468 0c-.566 0-.695.128-.7.7v6.846h-.932v-3.192c0-.446-.163-.6-.6-.6H5.371c-.5 0-.646.147-.648.654v2.812c0 .109-.011.219-.018.326h-.924V10c0-.464-.158-.618-.619-.619H1.569c-.438 0-.6.16-.6.606-.005.541 0 1.083 0 1.625zm10.3-10.971c-.1-.226.043-.362.239-.5.392-.274.773-.566 1.149-.861a.322.322 0 0 1 .389-.042 1.381 1.381 0 0 0 1.625-.331A1.4 1.4 0 0 0 13.154.081a1.36 1.36 0 0 0-.91 1.441.468.468 0 0 1-.233.51c-.394.272-.774.564-1.15.861a.345.345 0 0 1-.415.048 1.315 1.315 0 0 0-1.485.218A1.324 1.324 0 0 0 8.535 4.6a.357.357 0 0 1-.11.407Q7.656 5.76 6.9 6.53a.382.382 0 0 1-.376.107c-.3-.032-.691-.1-.9.05-.461.333-.8.129-1.177-.081a2.811 2.811 0 0 0-.391-.194.417.417 0 0 1-.3-.436A1.346 1.346 0 0 0 2.68 4.723a1.4 1.4 0 0 0-1.375 2.272 1.254 1.254 0 0 0 1.572.376.96.96 0 0 1 1.146.066 3.375 3.375 0 0 0 .446.223.375.375 0 0 1 .269.389 1.3 1.3 0 0 0 .846 1.2A1.316 1.316 0 0 0 7.066 9a1.321 1.321 0 0 0 .4-1.42.355.355 0 0 1 .113-.406c.506-.5 1.009-.994 1.5-1.5a.367.367 0 0 1 .43-.111 1.387 1.387 0 0 0 1.757-1.487z" style="stroke:none"/>
        <path d="M14.534 15.499V5.349c0-.074-.004-.124-.008-.157a1.398 1.398 0 0 0-.162-.008H12.96c-.113 0-.185.004-.23.009a2.25 2.25 0 0 0-.01.24v10.065h1.815m-3.75 0v-2.493l-.001-4.857a1.22 1.22 0 0 0-.008-.144 1.233 1.233 0 0 0-.144-.007c-.49-.002-.978-.001-1.467 0-.09 0-.148.004-.187.008-.004.04-.009.1-.009.192V15.5h1.815m-3.75 0v-1.565c0-.682 0-1.388-.002-2.081a.893.893 0 0 0-.006-.1.904.904 0 0 0-.1-.005c-.445-.003-.89-.002-1.334-.001h-.224c-.066 0-.111.003-.142.007a1.233 1.233 0 0 0-.007.148c-.002.5-.002 1-.001 1.5l-.001 1.31c0 .095-.007.185-.012.265l-.007.091-.025.43h1.86m-3.75 0V13.4c0-1.117 0-2.272-.002-3.408a.98.98 0 0 0-.006-.114.997.997 0 0 0-.115-.006c-.53-.002-1.06-.002-1.59 0a.876.876 0 0 0-.095.005.908.908 0 0 0-.006.106c-.004.376-.003.76-.002 1.132v4.384h1.815m2.872-6.622c.202 0 .392-.082.579-.25.277-.249.358-.539.253-.913a.84.84 0 0 1 .067-.674.832.832 0 0 1-.415.104c-.05 0-.1-.003-.164-.01a11.901 11.901 0 0 1-.111-.013c-.119-.013-.241-.028-.343-.028a.504.504 0 0 0-.115.01c-.244.172-.5.26-.761.26-.08 0-.156-.008-.228-.022.203.16.312.39.324.69.014.369.186.611.542.763.13.055.255.083.372.083M2.358 7.018a.457.457 0 0 0 .25-.069 1.4 1.4 0 0 1 .765-.242c.08 0 .156.008.23.021-.215-.165-.33-.41-.345-.729-.018-.389-.284-.692-.694-.79a.824.824 0 0 0-.192-.023.906.906 0 0 0-.758.418.905.905 0 0 0 .074 1.07c.176.209.439.344.67.344m6.593-1.88a.793.793 0 0 1 .402-.106c.092 0 .189.015.296.046a.846.846 0 0 0 .874-.24.94.94 0 0 0 .247-.661.748.748 0 0 1 .152-.744c-.212.084-.434.074-.681-.037a.951.951 0 0 0-.39-.092c-.195 0-.38.076-.563.234-.29.248-.376.544-.27.93.067.25.046.473-.067.67m4.692-2.834c.25 0 .482-.105.652-.295a.921.921 0 0 0 .087-1.102.9.9 0 0 0-1.06-.355.86.86 0 0 0-.582.91c.035.285-.021.525-.17.724.21-.088.431-.08.679.03.128.059.26.088.394.088M15.424 16l-.14-.001H.722c-.486 0-.708-.14-.721-.451-.014-.324.215-.48.715-.488.07-.001.142-.008.25-.013v-3.444c0-.541-.003-1.083.002-1.624.003-.447.161-.605.6-.607.53-.002 1.062-.002 1.593 0 .46.002.618.155.619.62.003 1.561.001 3.124.001 4.686v.361h.917c.007-.107.018-.217.018-.326.002-.938 0-1.875.002-2.812 0-.507.147-.653.647-.654.521 0 1.042-.002 1.562 0 .441.002.602.158.604.604.004.947.002 1.896.002 2.843v.35h.935V8.197c.001-.572.13-.7.696-.7.489-.001.978-.002 1.468 0 .502 0 .65.145.65.65.002 2.156.001 4.313.001 6.468v.424h.935V5.433c0-.639.11-.75.74-.75h1.407c.526.001.668.139.668.665.002 3.094.001 6.187.001 9.28v.433c.187 0 .341-.008.494.002.285.018.48.22.472.479-.007.247-.195.432-.466.454a1.333 1.333 0 0 1-.11.004zM6.153 9.377c-.184 0-.374-.04-.568-.123-.523-.223-.824-.632-.846-1.205-.008-.211-.084-.317-.27-.39a3.374 3.374 0 0 1-.446-.222c-.371-.212-.688-.358-1.146-.066-.5.319-1.184.086-1.572-.376A1.4 1.4 0 0 1 2.68 4.723c.616.148 1.049.628 1.077 1.253.011.236.093.36.302.436.136.05.264.123.391.194.378.21.716.413 1.177.08.208-.149.598-.081.899-.05.163.018.26.011.375-.106.502-.514 1.011-1.022 1.524-1.525.124-.121.159-.225.11-.407-.152-.559-.018-1.057.427-1.44.442-.378.951-.459 1.485-.218.168.076.276.063.415-.047.376-.297.756-.589 1.15-.86.193-.134.261-.266.232-.51a1.36 1.36 0 0 1 .91-1.442A1.407 1.407 0 0 1 14.8.634a1.418 1.418 0 0 1-.133 1.708 1.38 1.38 0 0 1-1.625.33c-.158-.07-.258-.06-.389.042-.376.296-.757.587-1.149.862-.197.138-.339.274-.24.5.075 1.007-.82 1.754-1.755 1.482-.188-.054-.297-.027-.43.112a77.33 77.33 0 0 1-1.501 1.503c-.124.121-.164.224-.113.406.153.545.025 1.038-.4 1.42-.277.25-.586.378-.913.378z" style="fill:#07a385;stroke:none"/>
    </g>
</svg>
