<svg xmlns="http://www.w3.org/2000/svg" width="23" height="23" viewBox="0 0 23 23">
    <path d="M19.059 14.3v2.875a1.917 1.917 0 0 1-2.089 1.915 18.965 18.965 0 0 1-8.27-2.942A18.688 18.688 0 0 1 2.95 10.4 18.965 18.965 0 0 1 .008 2.089 1.917 1.917 0 0 1 1.915 0H4.79a1.917 1.917 0 0 1 1.917 1.648 12.3 12.3 0 0 0 .671 2.693 1.917 1.917 0 0 1-.431 2.022L5.729 7.581a15.333 15.333 0 0 0 5.75 5.75l1.221-1.218a1.917 1.917 0 0 1 2.022-.431 12.3 12.3 0 0 0 2.693.671 1.917 1.917 0 0 1 1.644 1.947z" transform="translate(2.024 1.917)" style="fill:none;stroke:#fff;stroke-linecap:round;stroke-linejoin:round;stroke-width:2px"/>
</svg>
