<svg xmlns="http://www.w3.org/2000/svg" width="20.429" height="24" viewBox="0 0 20.429 24">
    <g data-name="004-teeth">
        <path d="M4.372 1.465A.913.913 0 0 0 3.1 1.226a6.365 6.365 0 0 0-1.518 1.421.913.913 0 0 0 1.443 1.118A5.332 5.332 0 0 1 4.137 2.73a.912.912 0 0 0 .235-1.265z" data-name="Group"/>
        <g data-name="Group">
            <path data-name="Vector" d="M20.065 4.659A5.872 5.872 0 0 0 16.343.684a7.586 7.586 0 0 0-5.558.362 7.078 7.078 0 0 0-7.682.18A7.111 7.111 0 0 0 1.617 2.6a1.043 1.043 0 0 0-.113.157 7.229 7.229 0 0 0 .2 9.08l.089.127c.031.044.065.09.09.129l.029.041a14 14 0 0 1 .994 3.536c.046.236.086.443.119.6.086.432.174.9.231 1.386a14.567 14.567 0 0 0 .946 4.018c.61 1.451 1.462 2.233 2.536 2.326h.198c1.332 0 2.073-1.533 2.621-3.032l.013-.038.75-2.368.732 2.363c0 .015.009.029.015.044.517 1.41 1.282 3.031 2.622 3.031h.201c.739-.064 1.776-.519 2.527-2.321a16.081 16.081 0 0 0 .947-4.018c.058-.49.146-.956.23-1.377.035-.164.075-.371.121-.607a13.929 13.929 0 0 1 1-3.542 8.373 8.373 0 0 0 1.35-7.476zm-2.819 6.383a12.283 12.283 0 0 0-1.325 4.283c-.044.224-.082.421-.117.587-.094.468-.19.979-.253 1.518a14.347 14.347 0 0 1-.82 3.543c-.294.706-.656 1.152-.973 1.2a4.257 4.257 0 0 1-.968-1.813l-1.332-4.3a.733.733 0 0 0-.017-.05 1.187 1.187 0 0 0-2.226 0l-.016.044-1.363 4.3c-.522 1.422-.862 1.748-.956 1.816h-.018c-.434-.064-.793-.777-.976-1.215a13.011 13.011 0 0 1-.813-3.515 19.147 19.147 0 0 0-.257-1.543c-.033-.156-.071-.354-.115-.579a12.476 12.476 0 0 0-1.309-4.26c-.033-.049-.072-.1-.11-.157s-.064-.089-.089-.127a.9.9 0 0 0-.068-.089 5.405 5.405 0 0 1-.169-6.824 1.035 1.035 0 0 0 .1-.139 5.344 5.344 0 0 1 1.082-1 5.181 5.181 0 0 1 2.951-.9 5.1 5.1 0 0 1 3.069 1 .912.912 0 0 0 .978.079 5.924 5.924 0 0 1 4.655-.483 4.012 4.012 0 0 1 2.536 2.783 6.544 6.544 0 0 1-1.08 5.841z" style="fill:#ff7854"/>
        </g>
    </g>
</svg>
