<svg xmlns="http://www.w3.org/2000/svg" width="16" height="15.999" viewBox="0 0 16 15.999">
    <g style="fill:#07a385">
        <path d="M2.7 12.263c.448 0 .9.011 1.353-.011.075 0 .164-.137.207-.228a.678.678 0 0 0 .007-.263V4.167a1.353 1.353 0 0 1 1.5-1.5H6.93V1.418A1.334 1.334 0 0 1 8.35 0h3.03a1.335 1.335 0 0 1 1.413 1.423v1.242h1.2a1.345 1.345 0 0 1 1.463 1.473v7.161a.589.589 0 0 0 .192.49 1.055 1.055 0 0 1-.154 1.691c-1.279.755-2.581 1.47-3.88 2.19a.905.905 0 0 1-.42.056H3.006c-.162 0-.319-.025-.422.169-.035.067-.194.093-.3.094-.632.008-1.265 0-1.9.007C.1 16 0 15.87 0 15.593q.01-1.731 0-3.463c0-.309.136-.409.426-.4.565.011 1.132 0 1.7 0 .504.001.504.002.574.533zm12.215-.868a1.028 1.028 0 0 0 .009-.118V4.049a.8.8 0 0 0-.9-.846H5.735a.821.821 0 0 0-.936.94v7.128c0 .091.013.182.018.238.214-.109.41-.293.611-.3a94.308 94.308 0 0 1 3.528-.008 1.182 1.182 0 0 1 1.126 1.5c-.032.114-.071.225-.109.343a3.214 3.214 0 0 0 1.881-.3c.72-.389 1.481-.7 2.229-1.038.261-.117.534-.206.829-.312zm-8.24 1.669h2.13c.483 0 .787-.261.787-.664s-.3-.664-.785-.666c-.71 0-1.425.052-2.128-.014a2.088 2.088 0 0 0-2.1.854.744.744 0 0 1-.512.215c-.459.03-.922.01-1.373.01v2.4h6.649a8.125 8.125 0 0 0 2.02-.041 8.429 8.429 0 0 0 1.81-.963c.648-.363 1.3-.723 1.94-1.094a.567.567 0 0 0 .274-.786.6.6 0 0 0-.8-.249c-.082.033-.161.073-.242.111-.955.441-1.91.885-2.868 1.319a1.119 1.119 0 0 1-.444.1c-1.375.008-2.751 0-4.126 0-.074 0-.149-.014-.23-.022-.002-.168-.002-.32-.002-.51zm-4.548-.77H.56v3.143h1.567zM12.25 2.652c0-.488.024-.964-.007-1.436a.748.748 0 0 0-.749-.674q-1.63-.017-3.259 0a.718.718 0 0 0-.736.6c-.045.5-.011 1.008-.011 1.5H8c0-.4.007-.79 0-1.175-.007-.275.093-.411.385-.409q1.48.011 2.96 0c.287 0 .4.123.392.4-.01.4 0 .79 0 1.184zM8.543 2.64h2.631V1.623H8.543z" style="stroke:none"/>
        <path d="M.377 15.999c-.28 0-.378-.133-.376-.406.006-1.154.008-2.31-.001-3.463-.002-.31.136-.409.426-.404.566.012 1.132.004 1.698.004.506.001.506.002.574.533.448 0 .901.01 1.353-.01.075-.004.164-.137.207-.229.034-.073.007-.174.007-.263V4.167c0-.97.532-1.498 1.504-1.5h1.16c0-.434-.002-.842.001-1.249.006-.86.56-1.413 1.42-1.415 1.01-.004 2.02-.004 3.03 0 .857.003 1.406.56 1.412 1.423.003.398.001.797.001 1.241h1.202c.921.003 1.462.545 1.462 1.474.002 2.387.002 4.773-.002 7.16 0 .195.032.34.192.49.522.488.46 1.328-.154 1.69-1.279.756-2.58 1.47-3.88 2.19-.116.065-.279.057-.42.057-2.73.003-5.459.002-8.188.002-.162 0-.32-.026-.422.168-.035.067-.194.093-.296.094-.406.005-.812.003-1.218.003a49.586 49.586 0 0 0-.692.004zm.183-3.706v3.144h1.567v-3.144H.56zm8.783 2.903c.677 0 1.387.126 2.02-.04.643-.17 1.212-.629 1.81-.964.648-.362 1.297-.723 1.94-1.094.327-.19.425-.5.274-.787-.15-.284-.465-.383-.803-.249-.082.033-.161.074-.242.11-.955.441-1.91.886-2.868 1.32a1.119 1.119 0 0 1-.444.102c-1.375.008-2.75.005-4.126.004-.074 0-.149-.014-.23-.022l.001-.512c.735 0 1.433.002 2.13 0 .483-.002.787-.261.787-.665 0-.405-.303-.665-.785-.666-.44-.001-.88.019-1.318.019-.271 0-.542-.008-.81-.033-.872-.082-1.572.115-2.099.854-.092.131-.333.204-.512.216-.459.03-.922.01-1.373.01v2.397h6.648zm-2.03-4.006c.549 0 1.097.004 1.645.013a1.182 1.182 0 0 1 1.126 1.498c-.032.114-.071.226-.108.344.664.055 1.279.022 1.88-.302.72-.39 1.482-.703 2.23-1.039.258-.115.53-.2.826-.31.001-.009.01-.063.01-.117 0-2.41.003-4.819-.002-7.228-.001-.537-.333-.845-.895-.846-2.763-.002-5.526-.001-8.289 0-.633 0-.936.303-.936.939v7.128c0 .091.014.182.019.238.214-.11.41-.293.61-.297.628-.015 1.257-.021 1.885-.021zm4.032-10.124c.282 0 .392.125.385.403-.01.395-.003.79-.003 1.184h.523c0-.49.024-.965-.007-1.437-.025-.376-.361-.67-.749-.673C10.408.53 9.321.532 8.235.542c-.366.003-.705.254-.736.604-.044.5-.011 1.007-.011 1.504h.508c0-.403.007-.79-.003-1.175-.007-.275.093-.41.385-.409a199.217 199.217 0 0 0 2.967 0zm-2.802.557V2.64h2.63V1.623h-2.63z" style="fill:#07a385;stroke:none"/>
    </g>
    <path data-name="Vector" d="M3.182 6.4a3.2 3.2 0 1 1 3.213-3.186A3.205 3.205 0 0 1 3.182 6.4zM.534 3.2A2.663 2.663 0 1 0 3.205.534 2.669 2.669 0 0 0 .534 3.2z" transform="translate(6.664 4.267)" style="fill:#07a385"/>
    <path data-name="Vector" d="M2.666 2.667V3.4a.289.289 0 0 1-.326.329h-.964a.279.279 0 0 1-.308-.31v-.755H.347A.3.3 0 0 1 0 2.324v-.931a.289.289 0 0 1 .328-.327h.738V.329A.289.289 0 0 1 1.391 0h.93a.3.3 0 0 1 .344.345v.722h.72a.3.3 0 0 1 .346.343v.931a.29.29 0 0 1-.327.327zM3.182 1.6h-.687c-.249.006-.37-.105-.365-.359V.557H1.6v.686c.005.253-.119.363-.366.357H.55v.532c.232 0 .452.006.67 0 .265-.009.39.107.382.376-.007.227 0 .454 0 .674h.532c0-.237.006-.456 0-.676-.009-.271.119-.383.384-.374.218.008.437 0 .669 0-.005-.184-.005-.332-.005-.532z" transform="translate(7.995 5.599)" style="fill:#07a385"/>
</svg>
