<svg xmlns="http://www.w3.org/2000/svg" width="31" height="31" viewBox="0 0 31 31">
    <path data-name="Vector (Stroke)" d="M18.851 2.067V0h-6.7v2.067h2.318v1.925L14.342 4a11.261 11.261 0 0 0-6.025 2.52q-.091.075-.18.151L6.781 5.319l1.664-1.664-1.461-1.462-4.791 4.791 1.462 1.461 1.664-1.664 1.356 1.355q-.077.089-.151.18A11.261 11.261 0 0 0 4 14.342l-.012.125H2.067v-2.318H0v6.7h2.067v-2.316h1.925Q4 16.6 4 16.658a11.261 11.261 0 0 0 2.52 6.026q.075.091.151.18l-1.352 1.355-1.664-1.664-1.462 1.461 4.791 4.791 1.461-1.461-1.664-1.665 1.356-1.356q.089.076.18.151A11.261 11.261 0 0 0 14.342 27l.125.012v1.925h-2.318V31h6.7v-2.067h-2.316v-1.925l.125-.008a11.261 11.261 0 0 0 6.025-2.52q.091-.075.18-.151l1.356 1.356-1.665 1.665 1.461 1.461 4.791-4.791-1.461-1.461-1.665 1.665-1.356-1.356q.077-.089.151-.18A11.261 11.261 0 0 0 27 16.658l.012-.125h1.925v2.318H31v-6.7h-2.067v2.318h-1.925Q27 14.4 27 14.342a11.261 11.261 0 0 0-2.52-6.026q-.075-.091-.151-.18l1.356-1.356 1.665 1.665 1.461-1.461-4.795-4.791-1.461 1.462L24.22 5.32l-1.356 1.355q-.089-.076-.18-.151A11.261 11.261 0 0 0 16.658 4l-.125-.012V2.067zm-3.66 4.142A9.359 9.359 0 0 0 6.2 15.5q0 .222.014.442A9.352 9.352 0 0 0 15.5 24.8q.176 0 .351-.01A9.343 9.343 0 0 0 24.8 15.5a9.418 9.418 0 0 0-1.272-4.652q-.134-.231-.28-.453a9.3 9.3 0 0 0-7.325-4.181Q15.712 6.2 15.5 6.2q-.155 0-.308.008zm-6.453 6.428a2.656 2.656 0 0 0-1.18 2.85l.006.026.016.063a2.652 2.652 0 1 0 1.158-2.939zm4.511-1.137a4.231 4.231 0 0 0 1.183 3.4q.142.145.3.275a4.229 4.229 0 0 0 3.318.957 4.234 4.234 0 0 0 3.095-6.272v-.007a4.232 4.232 0 0 0-7.896 1.647zm4.039 6.609a3.4 3.4 0 0 0-3.458-1.179l-.078.02a3.4 3.4 0 0 0 1.736 6.577l.025-.007a3.4 3.4 0 0 0 1.775-5.412zm.764-3.952a2.293 2.293 0 1 0-2.809-1.622 2.293 2.293 0 0 0 2.808 1.626zm-3.04 7.493a1.464 1.464 0 1 0-1.793-1.035 1.464 1.464 0 0 0 1.792 1.038zm-5.56-6.575a.717.717 0 1 0 .507-.878.717.717 0 0 0-.507.878z" style="fill:#fff"/>
</svg>
